<?xml version="1.0" encoding="utf-8"?>
<svg width="32" height="32" viewBox="0 0 32 32" fill="none" xmlns="http://www.w3.org/2000/svg">
                                                <path d="M10.7589 8.60718H12.6339V10.4822H10.7589V8.60718Z" fill="#2C2D2F"></path>
                                                <path d="M10.7589 12.9106H12.6339V14.7856H10.7589V12.9106Z" fill="#2C2D2F"></path>
                                                <path d="M19.3661 12.9106H21.2411V14.7856H19.3661V12.9106Z" fill="#2C2D2F"></path>
                                                <path d="M23.6696 12.9106H25.5446V14.7856H23.6696V12.9106Z" fill="#2C2D2F"></path>
                                                <path d="M19.3661 17.2144H21.2411V19.0894H19.3661V17.2144Z" fill="#2C2D2F"></path>
                                                <path d="M23.6696 17.2144H25.5446V19.0894H23.6696V17.2144Z" fill="#2C2D2F"></path>
                                                <path d="M19.3661 21.5178H21.2411V23.3928H19.3661V21.5178Z" fill="#2C2D2F"></path>
                                                <path d="M23.6696 21.5178H25.5446V23.3928H23.6696V21.5178Z" fill="#2C2D2F"></path>
                                                <path d="M19.3661 25.8214H21.2411V27.6964H19.3661V25.8214Z" fill="#2C2D2F"></path>
                                                <path d="M23.6696 25.8214H25.5446V27.6964H23.6696V25.8214Z" fill="#2C2D2F"></path>
                                                <path d="M6.45538 12.9106H8.33038V14.7856H6.45538V12.9106Z" fill="#2C2D2F"></path>
                                                <path d="M10.7589 17.2144H12.6339V19.0894H10.7589V17.2144Z" fill="#2C2D2F"></path>
                                                <path d="M6.45538 17.2144H8.33038V19.0894H6.45538V17.2144Z" fill="#2C2D2F"></path>
                                                <path d="M10.7589 21.5178H12.6339V23.3928H10.7589V21.5178Z" fill="#2C2D2F"></path>
                                                <path d="M6.45538 21.5178H8.33038V23.3928H6.45538V21.5178Z" fill="#2C2D2F"></path>
                                                <path d="M29.8482 30.125V8.60713H16.9375V4.13438L14.7857 4.493V0H4.30356V6.24006L2.15181 6.59869V30.125H0V32H32V30.125H29.8482ZM27.9732 10.4821V30.125H16.9375V10.4821H27.9732ZM6.17856 1.875H12.9107V4.8055L6.17856 5.92756V1.875ZM4.02681 8.18706L15.0625 6.34775V8.60713V30.125H12.6339V25.8214H6.45538V30.125H4.02681V8.18706ZM10.7589 30.125H8.33037V27.6964H10.7589V30.125Z" fill="#2C2D2F"></path>
                                                </svg>