<?xml version="1.0" encoding="utf-8"?>
<svg width="14" height="16" viewBox="0 0 14 16" fill="none" xmlns="http://www.w3.org/2000/svg">
                                                <path d="M12.789 0H0.601547C0.47211 0 0.367172 0.104906 0.367172 0.234375V15.7656C0.367172 15.8951 0.47211 16 0.601547 16H12.789C12.9185 16 13.0234 15.8951 13.0234 15.7656V0.234375C13.0234 0.104906 12.9185 0 12.789 0ZM0.835922 1.40625H2.71092C3.09864 1.40625 3.41405 1.72169 3.41405 2.10938V2.42325C2.69667 2.52634 2.12789 3.09512 2.0248 3.8125H1.92967C1.80023 3.8125 1.6953 3.91741 1.6953 4.04688C1.6953 4.17634 1.80023 4.28125 1.92967 4.28125H5.36717C5.49661 4.28125 5.60155 4.17634 5.60155 4.04688C5.60155 3.91741 5.49661 3.8125 5.36717 3.8125H5.27205C5.16895 3.09512 4.60017 2.52634 3.8828 2.42325V2.10938C3.8828 1.46319 3.35711 0.9375 2.71092 0.9375H0.835922V0.46875H6.46092V14.5938H0.835922V1.40625ZM3.64842 2.875C4.21436 2.875 4.68783 3.27825 4.7967 3.8125H2.50011C2.60902 3.27825 3.08248 2.875 3.64842 2.875ZM12.5547 15.5312H0.835922V15.0625H12.5547V15.5312ZM12.5547 14.5938H6.92967V0.46875H12.5547V14.5938Z" fill="#0D0D0D"></path>
                                            </svg>