<?xml version="1.0" encoding="utf-8"?>
<svg width="16" height="16" viewBox="0 0 16 16" fill="none" xmlns="http://www.w3.org/2000/svg">
                                                <path d="M14.9793 7.85904V2.8301C14.9793 1.60685 13.9841 0.611694 12.7609 0.611694H3.1754C1.95215 0.611694 0.956995 1.60688 0.956995 2.8301V7.92391C0.364495 8.54335 2.67029e-05 9.38263 2.67029e-05 10.3054V14.1187C2.67029e-05 14.8186 0.569495 15.3881 1.2695 15.3881C1.96946 15.3881 2.53893 14.8186 2.53893 14.1187V13.7249H13.4612V14.1187C13.4612 14.8186 14.0306 15.3881 14.7306 15.3881C15.4306 15.3881 16 14.8187 16 14.1187V10.3054C16 9.34998 15.6093 8.4841 14.9793 7.85904ZM3.1754 1.23669H12.7609C13.6395 1.23669 14.3543 1.95151 14.3543 2.8301V7.3672C14.1629 7.24935 13.9592 7.14966 13.7456 7.0706V6.03141C13.7456 5.11016 12.9961 4.36066 12.0748 4.36066H9.35831C8.79906 4.36066 8.30346 4.63713 8.00006 5.06029C7.69665 4.63713 7.20106 4.36066 6.64181 4.36066H3.92531C3.00406 4.36066 2.25456 5.11013 2.25456 6.03141V7.0706C2.01703 7.15851 1.79175 7.27188 1.58203 7.40738V2.8301C1.582 1.95151 2.29678 1.23669 3.1754 1.23669ZM3.44793 6.85754C3.25434 6.85754 3.06446 6.87385 2.8795 6.90466V6.03141C2.8795 5.45479 3.34862 4.98566 3.92525 4.98566H6.64175C7.21837 4.98566 7.6875 5.45479 7.6875 6.03141V6.85757H3.44793V6.85754ZM8.31253 6.03138C8.31253 5.45476 8.78165 4.98563 9.35828 4.98563H12.0748C12.6514 4.98563 13.1205 5.45476 13.1205 6.03138V6.90463C12.9355 6.87382 12.7457 6.85751 12.5521 6.85751H8.31253V6.03138ZM3.44793 7.48254H12.5521C14.1087 7.48254 15.375 8.74888 15.375 10.3054V11.2325H12.2407C12.0682 11.2325 11.9282 11.3725 11.9282 11.545C11.9282 11.7176 12.0682 11.8575 12.2407 11.8575H15.375V13.0999H0.625027V11.8575H9.11575C9.28834 11.8575 9.42825 11.7176 9.42825 11.545C9.42825 11.3725 9.28834 11.2325 9.11575 11.2325H0.625027V10.3054C0.625027 8.74888 1.89137 7.48254 3.44793 7.48254ZM1.91393 14.1187C1.91393 14.474 1.62484 14.7631 1.2695 14.7631C0.914152 14.7631 0.625027 14.474 0.625027 14.1187V13.7249H1.91393V14.1187ZM14.7306 14.7631C14.3752 14.7631 14.0861 14.474 14.0861 14.1187V13.7249H15.375V14.1187C15.375 14.474 15.0859 14.7631 14.7306 14.7631Z" fill="#0D0D0D"></path>
                                            </svg>