<svg width="32" height="24" viewBox="0 0 32 24" fill="none" xmlns="http://www.w3.org/2000/svg">
                                                <path d="M30.8438 20.9397V18.875C30.8438 18.6161 30.6339 18.4062 30.375 18.4062H29.9688V11.503C30.6099 11.3723 31.0938 10.8041 31.0938 10.125C31.0938 9.41663 30.5673 8.82894 29.8851 8.73256L27.4191 0.490687C27.3597 0.292187 27.1771 0.15625 26.9699 0.15625H26.0144C25.7554 0.15625 25.5456 0.366062 25.5456 0.625C25.5456 0.883937 25.7554 1.09375 26.0144 1.09375H26.6209L28.9023 8.71875H21.6589L17.0997 2.99844C16.8313 2.66181 16.4305 2.46875 16 2.46875C15.5695 2.46875 15.1687 2.66181 14.9003 2.9985L10.3411 8.71875H3.09769L5.37906 1.09375H23.9951C24.2541 1.09375 24.4639 0.883937 24.4639 0.625C24.4639 0.366062 24.2541 0.15625 23.9951 0.15625H5.03C4.82288 0.15625 4.64031 0.292187 4.58087 0.490687L2.11494 8.73256C1.43275 8.82894 0.90625 9.41663 0.90625 10.125C0.90625 10.8041 1.39013 11.3723 2.03125 11.503V12C2.03125 12.2589 2.24106 12.4688 2.5 12.4688C2.75894 12.4688 2.96875 12.2589 2.96875 12V11.5312H3.90625V18.4062H2.96875V13.9664C2.96875 13.7074 2.75894 13.4976 2.5 13.4976C2.24106 13.4976 2.03125 13.7074 2.03125 13.9664V18.4062H1.625C1.36606 18.4062 1.15625 18.6161 1.15625 18.875V20.9397C0.496 21.0833 0 21.6723 0 22.375C0 23.1849 0.658875 23.8438 1.46875 23.8438H25.9984C26.2574 23.8438 26.4672 23.6339 26.4672 23.375C26.4672 23.1161 26.2574 22.9062 25.9984 22.9062H1.46875C1.17581 22.9062 0.9375 22.6679 0.9375 22.375C0.9375 22.0821 1.17581 21.8438 1.46875 21.8438H30.5312C30.8242 21.8438 31.0625 22.0821 31.0625 22.375C31.0625 22.6679 30.8242 22.9062 30.5312 22.9062H28.0241C27.7651 22.9062 27.5553 23.1161 27.5553 23.375C27.5553 23.6339 27.7651 23.8438 28.0241 23.8438H30.5312C31.3411 23.8438 32 23.1849 32 22.375C32 21.6723 31.504 21.0833 30.8438 20.9397ZM25.8534 18.4062V16.5938H27.1562V18.4062H25.8534ZM19.2812 18.4062V12.25C19.2812 11.9911 19.0714 11.7812 18.8125 11.7812H13.1875C12.9286 11.7812 12.7188 11.9911 12.7188 12.25V18.4062H11.2188V11.5171C11.5716 11.4671 11.892 11.2853 12.1183 11.0015L12.4433 10.5938H19.5567L19.8818 11.0016C20.1081 11.2853 20.4284 11.4671 20.7813 11.5171V18.4062H19.2812ZM18.3438 18.4062H13.6562V12.7188H18.3438V18.4062ZM7.09375 18.4062V16.5938H8.40625V18.4062H7.09375ZM9.34375 11.5312H10.2812V18.4062H9.34375V11.5312ZM13.1905 9.65625L16 6.13125L18.8095 9.65625H13.1905ZM21.7188 11.5312H22.6562V18.4062H21.7188V11.5312ZM27.1562 11.5312V15.6562H23.5938V11.5312H27.1562ZM23.5938 16.5938H24.9159V18.4062H23.5938V16.5938ZM28.0938 11.5312H29.0312V18.4062H28.0938V11.5312ZM2.3125 10.5938C2.054 10.5938 1.84375 10.3835 1.84375 10.125C1.84375 9.8665 2.054 9.65625 2.3125 9.65625H2.45825C2.46163 9.65631 2.46494 9.65637 2.46831 9.65637C2.47175 9.65637 2.47519 9.65631 2.47863 9.65625H10.5669C10.7096 9.65625 10.8445 9.59125 10.9334 9.47969L15.6333 3.58287C15.7228 3.47062 15.8564 3.40625 15.9999 3.40625C16.1434 3.40625 16.2771 3.47062 16.3665 3.58281L21.0664 9.47969C21.1554 9.59125 21.2903 9.65625 21.433 9.65625H29.5212C29.5247 9.65631 29.5281 9.65637 29.5316 9.65637C29.5349 9.65637 29.5382 9.65631 29.5416 9.65625H29.6875C29.946 9.65625 30.1562 9.8665 30.1562 10.125C30.1562 10.3835 29.946 10.5938 29.6875 10.5938H20.9814C20.8379 10.5938 20.7043 10.5294 20.6149 10.4172L16.3666 5.087C16.2776 4.97544 16.1427 4.91044 16 4.91044C15.8573 4.91044 15.7224 4.97544 15.6334 5.087L11.3852 10.4171C11.2957 10.5294 11.1621 10.5938 11.0186 10.5938H2.3125ZM8.40625 11.5312V15.6562H4.84375V11.5312H8.40625ZM4.84375 16.5938H6.15625V18.4062H4.84375V16.5938ZM2.09375 20.9062V19.3438H29.9062V20.9062H2.09375Z" fill="#2C2D2F"></path>
                                            </svg>