<?xml version="1.0" encoding="utf-8"?>
<svg width="32" height="32" viewBox="0 0 32 32" fill="none" xmlns="http://www.w3.org/2000/svg">
                                                <path d="M31.3858 28.2799V3.71883C31.713 3.70524 31.9744 3.43647 31.9744 3.10598C31.9744 2.76681 31.6994 2.49182 31.3602 2.49182H0.614155C0.274988 2.49182 0 2.76681 0 3.10598C0 3.44514 0.274988 3.72013 0.614155 3.72013V28.2806C0.280899 28.2875 0.0127437 28.5592 0.0127437 28.8941C0.0127437 29.2333 0.287732 29.5083 0.626899 29.5083H31.3858C31.725 29.5083 32 29.2333 32 28.8941C32 28.5549 31.725 28.2799 31.3858 28.2799ZM30.1575 3.72005V28.2799H8.59655V20.9164C8.59655 20.5772 8.32157 20.3022 7.9824 20.3022H3.71211C3.37294 20.3022 3.09795 20.5772 3.09795 20.9164V28.2799H1.84246V3.72005H30.1575ZM4.32626 25.1977C4.47803 25.1904 4.62443 25.127 4.73199 25.0194C4.84637 24.905 4.91163 24.7469 4.91163 24.5849C4.91163 24.4237 4.84637 24.2655 4.73199 24.1511C4.62443 24.0436 4.47803 23.9802 4.32626 23.973V21.5305H7.36825V28.2799H4.32626V25.1977Z" fill="#2C2D2F"></path>
                                                <path d="M28.2959 20.3024H23.9504C23.6112 20.3024 23.3362 20.5774 23.3362 20.9165V25.19C23.3362 25.5292 23.6112 25.8042 23.9504 25.8042H28.2959C28.635 25.8042 28.91 25.5292 28.91 25.19V20.9165C28.91 20.5773 28.635 20.3024 28.2959 20.3024ZM27.6817 24.5758H24.5646V21.5306H27.6817V24.5758Z" fill="#2C2D2F"></path>
                                                <path d="M17.2219 25.8041H21.4938C21.833 25.8041 22.1079 25.5291 22.1079 25.1899V20.9164C22.1079 20.5772 21.833 20.3022 21.4938 20.3022H17.2219C16.8827 20.3022 16.6077 20.5772 16.6077 20.9164V25.1899C16.6077 25.5292 16.8828 25.8041 17.2219 25.8041ZM17.836 21.5306H20.8796V24.5758H17.836V21.5306Z" fill="#2C2D2F"></path>
                                                <path d="M14.7301 20.3024H10.4582C10.119 20.3024 9.84406 20.5774 9.84406 20.9165V25.19C9.84406 25.5292 10.119 25.8042 10.4582 25.8042H14.7301C15.0693 25.8042 15.3443 25.5292 15.3443 25.19V20.9165C15.3443 20.5773 15.0693 20.3024 14.7301 20.3024ZM14.116 24.5758H11.0724V21.5306H14.116V24.5758Z" fill="#2C2D2F"></path>
                                                <path d="M17.2219 18.4342H28.3455C28.6846 18.4342 28.9596 18.1592 28.9596 17.82V6.20229C28.9596 5.86312 28.6846 5.58813 28.3455 5.58813H17.2219C16.8827 5.58813 16.6077 5.86312 16.6077 6.20229V17.82C16.6077 18.1593 16.8828 18.4342 17.2219 18.4342ZM17.836 12.9004H20.3182V17.2059H17.836V12.9004ZM23.9776 12.9004V17.2059H21.5465V12.9004H23.9776ZM21.5466 11.6721V6.81644H23.9777V11.6721H21.5466ZM25.2059 17.2059V12.9004H27.7313V17.2059H25.2059ZM27.7313 11.6721H25.2059V6.81644H27.7313V11.6721ZM20.3183 6.81644V11.6721H17.8361V6.81644H20.3183Z" fill="#2C2D2F"></path>
                                                <path d="M3.71212 18.4342H14.8357C15.1749 18.4342 15.4498 18.1592 15.4498 17.82V6.20229C15.4498 5.86312 15.1749 5.58813 14.8357 5.58813H3.71212C3.37295 5.58813 3.09796 5.86312 3.09796 6.20229V17.82C3.09796 18.1593 3.37295 18.4342 3.71212 18.4342ZM4.32627 12.9004H6.80845V17.2059H4.32627V12.9004ZM10.4678 12.9004V17.2059H8.03676V12.9004H10.4678ZM8.03684 11.6721V6.81644H10.4679V11.6721H8.03684ZM11.6961 17.2059V12.9004H14.2215V17.2059H11.6961ZM14.2215 11.6721H11.6961V6.81644H14.2215V11.6721ZM6.80853 6.81644V11.6721H4.32627V6.81644H6.80853Z" fill="#2C2D2F"></path>
                                            </svg>