<svg width="32" height="32" viewBox="0 0 32 32" fill="none" xmlns="http://www.w3.org/2000/svg">
                                                <path d="M28.9214 23.8591C28.6716 23.862 28.699 23.8499 28.3669 23.8731V16.1031C28.3669 15.2715 27.6903 14.5949 26.8587 14.5949H23.0513C23.0492 14.5949 23.0472 14.5946 23.0452 14.5946H18.6607V2.88931L22.2566 6.36524C22.4599 6.56174 22.5764 6.83649 22.5764 7.11918V12.8538C22.5764 13.1127 22.7863 13.3226 23.0452 13.3226C23.3041 13.3226 23.5139 13.1127 23.5139 12.8538V7.11918C23.5139 6.58381 23.2932 6.06331 22.9082 5.69118L18.5177 1.44724C18.419 1.35462 18.2299 1.27149 18.0426 1.33993L10.1663 3.98743V2.16243C10.1722 1.36499 9.45669 0.67093 8.62438 0.719305C7.82831 0.719305 7.18062 1.36668 7.18062 2.16243V4.99099L5.11994 5.68368C4.3105 5.95581 3.76662 6.71231 3.76662 7.56631V23.8616C1.68069 23.9151 0 25.6273 0 27.7259V30.1095C0 30.7566 0.526437 31.283 1.1735 31.283H30.8264C31.4736 31.283 31.9999 30.7566 31.9999 30.1095V26.9376C32 25.2401 30.6189 23.8591 28.9214 23.8591ZM28.9214 24.7966C30.102 24.7966 31.0625 25.7571 31.0625 26.9377V27.4294H26.5156V26.9377C26.5167 25.6564 27.6425 24.6856 28.9214 24.7966ZM27.4294 16.1031V24.115C26.341 24.5901 25.5781 25.6762 25.5781 26.9376V27.4294H18.6607V15.5324H26.8587C27.1734 15.5324 27.4294 15.7884 27.4294 16.1031ZM8.11812 2.16243C8.11812 1.88362 8.34525 1.65681 8.62438 1.65681C8.87506 1.61999 9.21263 1.81656 9.22875 2.16243V4.30256L8.11812 4.67587V2.16243ZM3.76669 24.7982V27.4294H0.952375C1.09819 25.9856 2.29687 24.8479 3.76669 24.7982ZM0.9375 30.1096V28.3669H3.76669V30.3456H1.17356C1.04338 30.3456 0.9375 30.2397 0.9375 30.1096ZM4.70419 7.56631C4.70419 7.11543 4.99131 6.71606 5.41869 6.57237L17.7232 2.43637V4.99043L7.5 8.42687C7.25462 8.50931 7.12256 8.77512 7.20506 9.02056C7.27087 9.21643 7.4535 9.34006 7.64931 9.34006C7.69881 9.34006 7.74919 9.33218 7.79875 9.31549L17.7232 5.97956V8.36424L7.5 11.8006C7.25462 11.8831 7.12256 12.1489 7.20506 12.3943C7.27087 12.5902 7.4535 12.7138 7.64931 12.7138C7.69881 12.7138 7.74919 12.7059 7.79875 12.6892L17.7232 9.35324V11.7379L7.5 15.1744C7.25462 15.2568 7.12256 15.5226 7.20506 15.7681C7.27087 15.9639 7.4535 16.0876 7.64931 16.0876C7.69881 16.0876 7.74919 16.0797 7.79875 16.063L17.7232 12.7271V15.0619C17.7232 15.0626 17.7232 15.0631 17.7232 15.0637V15.1118L7.5 18.5481C7.25462 18.6306 7.12256 18.8964 7.20506 19.1418C7.27087 19.3377 7.4535 19.4613 7.64931 19.4613C7.69881 19.4613 7.74919 19.4534 7.79875 19.4367L17.7231 16.1007V18.4855L11.3396 20.6312C11.0942 20.7137 10.9621 20.9795 11.0446 21.2249C11.1104 21.4208 11.2931 21.5444 11.4889 21.5444C11.5384 21.5444 11.5887 21.5366 11.6383 21.5199L17.7231 19.4745V30.3455H13.6736V25.4747C13.6736 25.1554 13.5277 24.8616 13.2734 24.6686C13.0191 24.4756 12.6969 24.4141 12.3894 24.4999L8.02644 25.7179C7.5285 25.8569 7.18075 26.3151 7.18075 26.8321V30.3455H4.70419V7.56631ZM8.11825 26.8321C8.11825 26.7341 8.18419 26.6473 8.2785 26.6209L9.95837 26.1519V30.3456H8.11819L8.11825 26.8321ZM10.8959 30.3456V25.8902L12.6414 25.4029C12.665 25.3962 12.687 25.4004 12.7066 25.4153C12.7261 25.4302 12.7361 25.4502 12.7361 25.4747V30.3456H10.8959ZM18.6607 30.3456V28.3669H25.5781V30.3456H18.6607ZM31.0625 30.1096C31.0625 30.2397 30.9566 30.3456 30.8265 30.3456H26.5156V28.3669H31.0625V30.1096Z" fill="#2C2D2F"></path>
                                                <path d="M7.6493 22.8351C7.6988 22.8351 7.74917 22.8272 7.79873 22.8105L9.53911 22.2255C9.78448 22.1431 9.91655 21.8772 9.83405 21.6318C9.75155 21.3864 9.48573 21.2542 9.24036 21.3369L7.49998 21.9219C7.25461 22.0043 7.12255 22.2701 7.20505 22.5156C7.27086 22.7114 7.45348 22.8351 7.6493 22.8351Z" fill="#2C2D2F"></path>
                                                <path d="M20.7135 19.3987H25.3105C25.7464 19.3987 26.101 19.0441 26.101 18.6082V17.4799C26.101 17.044 25.7464 16.6893 25.3105 16.6893H20.7135C20.2776 16.6893 19.923 17.044 19.923 17.4799V18.6082C19.923 19.0441 20.2777 19.3987 20.7135 19.3987ZM20.8605 17.6268H25.1635V18.4612H20.8605V17.6268Z" fill="#2C2D2F"></path>
                                                <path d="M20.7135 22.963H25.3105C25.7464 22.963 26.101 22.6084 26.101 22.1725V21.0442C26.101 20.6082 25.7464 20.2537 25.3105 20.2537H20.7135C20.2776 20.2537 19.923 20.6083 19.923 21.0442V22.1725C19.923 22.6084 20.2777 22.963 20.7135 22.963ZM20.8605 21.1912H25.1635V22.0255H20.8605V21.1912Z" fill="#2C2D2F"></path>
                                                <path d="M20.7135 26.5639H22.234C22.67 26.5639 23.0246 26.2092 23.0246 25.7734V24.6451C23.0246 24.2091 22.67 23.8545 22.234 23.8545H20.7135C20.2776 23.8545 19.923 24.2091 19.923 24.6451V25.7734C19.923 26.2092 20.2777 26.5639 20.7135 26.5639ZM20.8605 24.792H22.0871V25.6264H20.8605V24.792Z" fill="#2C2D2F"></path>
                                                </svg>