<?xml version="1.0" encoding="utf-8"?>
<svg width="17" height="16" viewBox="0 0 17 16" fill="none" xmlns="http://www.w3.org/2000/svg">
                                                <g clip-path="url(#clip0_126_1290)">
                                                <path d="M15.9221 14.1251C15.6633 14.1251 15.4534 14.335 15.4534 14.5939V15.0626H14.9846C14.7258 15.0626 14.5159 15.2725 14.5159 15.5314C14.5159 15.7902 14.7258 16.0001 14.9846 16.0001H15.9221C16.181 16.0001 16.3909 15.7902 16.3909 15.5314V14.5939C16.3909 14.335 16.181 14.1251 15.9221 14.1251Z" fill="#0D0D0D"></path>
                                                <path d="M13.0915 15.0314H11.2092C10.9422 15.0314 10.7249 15.2486 10.7249 15.5157C10.7249 15.7828 10.9422 16 11.2092 16H13.0915C13.3585 16 13.5758 15.7828 13.5758 15.5157C13.5758 15.2486 13.3585 15.0314 13.0915 15.0314Z" fill="#0D0D0D"></path>
                                                <path d="M0.875232 5.65517C1.14229 5.65517 1.35955 5.43791 1.35955 5.17085V3.28864C1.35955 3.02158 1.14229 2.80432 0.875232 2.80432C0.60817 2.80432 0.390915 3.02158 0.390915 3.28864V5.17085C0.390915 5.43791 0.60817 5.65517 0.875232 5.65517Z" fill="#0D0D0D"></path>
                                                <path d="M0.859695 1.875C1.11857 1.875 1.32845 1.66512 1.32845 1.40625V0.9375H1.7972C2.05607 0.9375 2.26595 0.727625 2.26595 0.46875C2.26595 0.209875 2.05607 0 1.7972 0H0.859695C0.60082 0 0.390945 0.209875 0.390945 0.46875V1.40625C0.390945 1.66512 0.60082 1.875 0.859695 1.875Z" fill="#0D0D0D"></path>
                                                <path d="M11.2092 0.968634H13.0915C13.3585 0.968634 13.5758 0.751379 13.5758 0.484317C13.5758 0.217255 13.3585 0 13.0915 0H11.2092C10.9422 0 10.7249 0.217255 10.7249 0.484317C10.7249 0.751379 10.9422 0.968634 11.2092 0.968634Z" fill="#0D0D0D"></path>
                                                <path d="M7.4444 0.968634H9.32661C9.59367 0.968634 9.81093 0.751379 9.81093 0.484317C9.81093 0.217255 9.59367 0 9.32661 0H7.4444C7.17734 0 6.96008 0.217255 6.96008 0.484317C6.96008 0.751379 7.17734 0.968634 7.4444 0.968634Z" fill="#0D0D0D"></path>
                                                <path d="M3.67955 0.968634H5.56177C5.82883 0.968634 6.04608 0.751379 6.04608 0.484317C6.04608 0.217255 5.82883 0 5.56177 0H3.67955C3.41249 0 3.19524 0.217255 3.19524 0.484317C3.19524 0.751379 3.41249 0.968634 3.67955 0.968634Z" fill="#0D0D0D"></path>
                                                <path d="M14.9846 0.9375H15.4534V1.40625C15.4534 1.66512 15.6633 1.875 15.9221 1.875C16.181 1.875 16.3909 1.66512 16.3909 1.40625V0.46875C16.3909 0.209875 16.181 0 15.9221 0H14.9846C14.7258 0 14.5159 0.209875 14.5159 0.46875C14.5159 0.727625 14.7258 0.9375 14.9846 0.9375Z" fill="#0D0D0D"></path>
                                                <path d="M15.9065 6.56921C15.6394 6.56921 15.4222 6.78647 15.4222 7.05353V8.93574C15.4222 9.20281 15.6394 9.42006 15.9065 9.42006C16.1735 9.42006 16.3908 9.20281 16.3908 8.93574V7.05353C16.3908 6.7865 16.1735 6.56921 15.9065 6.56921Z" fill="#0D0D0D"></path>
                                                <path d="M15.9065 2.80432C15.6394 2.80432 15.4222 3.02158 15.4222 3.28864V5.17085C15.4222 5.43791 15.6394 5.65517 15.9065 5.65517C16.1735 5.65517 16.3908 5.43791 16.3908 5.17085V3.28864C16.3908 3.02158 16.1735 2.80432 15.9065 2.80432Z" fill="#0D0D0D"></path>
                                                <path d="M15.9065 10.334C15.6394 10.334 15.4222 10.5512 15.4222 10.8183V12.7005C15.4222 12.9676 15.6394 13.1848 15.9065 13.1848C16.1735 13.1848 16.3908 12.9676 16.3908 12.7005V10.8183C16.3908 10.5512 16.1735 10.334 15.9065 10.334Z" fill="#0D0D0D"></path>
                                                <path d="M13.5845 2.32227H11.9405C11.6816 2.32227 11.4718 2.53214 11.4718 2.79102C11.4718 3.04989 11.6816 3.25977 11.9405 3.25977H12.4529L8.18641 7.5262H1.35966V7.04848C1.35966 6.78139 1.14238 6.56411 0.87529 6.56411C0.608196 6.56411 0.390915 6.78139 0.390915 7.04848L0.391071 14.5752C0.391071 14.5762 0.390915 14.5772 0.390915 14.5782V15.5313C0.390915 15.7902 0.60079 16.0001 0.859665 16.0001H0.859821H9.32688C9.59398 16.0001 9.81126 15.7828 9.81126 15.5157C9.81126 15.2486 9.59398 15.0313 9.32688 15.0313H8.84932V8.18911L13.1158 3.92267V4.43505C13.1158 4.69392 13.3256 4.9038 13.5845 4.9038C13.8434 4.9038 14.0533 4.69392 14.0533 4.43505V2.79102C14.0533 2.53211 13.8434 2.32227 13.5845 2.32227ZM1.32857 15.047L1.35966 8.4637H7.91182V15.047H1.32857Z" fill="#0D0D0D"></path>
                                                </g>
                                                <defs>
                                                <clipPath id="clip0_26_1290">
                                                <rect width="16" height="16" fill="white" transform="translate(0.390945)"></rect>
                                                </clipPath>
                                                </defs>
                                            </svg>