<svg width="32" height="32" viewBox="0 0 32 32" fill="none" xmlns="http://www.w3.org/2000/svg">
                                                <path d="M21.058 24.6039H22.8359C23.0084 24.6039 23.1482 24.464 23.1482 24.2915V20.9623C23.1482 20.7898 23.0084 20.6499 22.8359 20.6499H21.058C20.8855 20.6499 20.7456 20.7898 20.7456 20.9623V24.2915C20.7456 24.464 20.8855 24.6039 21.058 24.6039Z" fill="#2C2D2F"></path>
                                                <path d="M25.8633 24.6039H27.6412C27.8137 24.6039 27.9535 24.464 27.9535 24.2915V20.9623C27.9535 20.7898 27.8137 20.6499 27.6412 20.6499H25.8633C25.6908 20.6499 25.5509 20.7898 25.5509 20.9623V24.2915C25.5508 24.464 25.6907 24.6039 25.8633 24.6039Z" fill="#2C2D2F"></path>
                                                <path d="M31.7722 26.7579C31.6515 26.6586 31.4988 26.6097 31.3448 26.6171V18.1352H31.375C31.6066 18.1352 31.8193 18.0071 31.9276 17.8023C32.0358 17.5976 32.0219 17.3497 31.8915 17.1583L26.3708 9.05612C26.2544 8.88531 26.061 8.78306 25.8542 8.78306H23.1797V6.22681C23.1797 5.88169 22.8998 5.60181 22.5547 5.60181H19.8094C19.4643 5.60181 19.1844 5.88169 19.1844 6.22681V8.78306H14.7664C14.5336 8.28256 14.1962 7.84144 13.7755 7.48725C14.0886 7.01262 14.2603 6.45256 14.2603 5.87362C14.2603 4.25712 12.9451 2.942 11.3286 2.942C11.3269 2.942 11.3252 2.942 11.3234 2.942C11.0709 1.27862 9.63131 0 7.89862 0C6.12912 0 4.66531 1.33356 4.45937 3.04844C3.21681 3.39356 2.30831 4.54206 2.30831 5.8735C2.30831 5.90856 2.30894 5.94356 2.31025 5.97862C0.926313 6.56487 0 7.931 0 9.47069C0 10.3575 0.312187 11.2118 0.870875 11.8876C0.365188 12.6553 0.0914375 13.5594 0.0914375 14.4859C0.0914375 17.0914 2.21119 19.2112 4.81663 19.2112C5.5375 19.2112 6.23238 19.052 6.86619 18.7456V23.4254C4.69619 23.0814 2.59306 22.8891 0.633125 22.8636C0.464875 22.8586 0.304937 22.9263 0.185937 23.0438C0.0669375 23.1612 0 23.3214 0 23.4886V31.375C0 31.7201 0.279813 32 0.625 32H31.375C31.7201 32 32 31.7201 32 31.375V27.2404C32 27.0536 31.9165 26.8766 31.7722 26.7579ZM20.4344 6.85175H21.9297V8.783H20.4344V6.85175ZM25.5238 10.033L30.1928 16.8851H18.0186L13.3495 10.033H25.5238ZM30.0949 18.1351V26.8292C26.2782 27.4206 22.3692 27.2722 18.6043 26.3989V18.1351H30.0949ZM12.6601 18.6134C11.4282 18.6134 10.4296 19.6121 10.4296 20.8439V24.1139C9.65425 23.9376 8.88206 23.7791 8.11625 23.6388V16.4632L12.1673 10.5179L17.1716 17.8621C17.2204 17.9336 17.2832 17.9922 17.3543 18.0373V26.0814C16.8721 25.9477 16.3926 25.8022 15.9165 25.6443C15.5753 25.5311 15.2332 25.4214 14.8905 25.3146V20.8439C14.8905 19.612 13.8919 18.6134 12.6601 18.6134ZM6.13006 17.1582C6.01062 17.3335 5.99275 17.5477 6.06269 17.7321C5.6695 17.8832 5.2495 17.9612 4.81663 17.9612C2.90038 17.9612 1.34144 16.4023 1.34144 14.4859C1.34144 13.6649 1.63381 12.8677 2.16475 12.2413C2.38412 11.9824 2.35687 11.5958 2.1035 11.3702C1.56106 10.8876 1.25 10.1952 1.25 9.47069C1.25 8.31194 2.03225 7.29981 3.15225 7.00938C3.48113 6.92413 3.68169 6.59169 3.60375 6.261C3.57363 6.13306 3.55831 6.00269 3.55831 5.8735C3.55831 5 4.23988 4.26388 5.10988 4.19756C5.44238 4.17225 5.6945 3.84788 5.68569 3.51475C5.68575 3.51388 5.68575 3.51206 5.68575 3.50725C5.68575 2.28644 6.67781 1.25 7.89862 1.25C9.1195 1.25 10.1127 2.24325 10.1127 3.46406C10.1127 3.50537 10.1111 3.55056 10.1076 3.60619C10.0949 3.807 10.1797 4.00163 10.3354 4.12906C10.4911 4.25656 10.6986 4.30119 10.8929 4.24925C11.0351 4.21119 11.1816 4.19187 11.3286 4.19187C12.2558 4.19187 13.0102 4.94625 13.0102 5.8735C13.0102 6.35675 12.8013 6.81744 12.4371 7.13731C12.2839 7.27181 12.2061 7.47256 12.2283 7.67519C12.2506 7.87781 12.3702 8.05681 12.549 8.15487C12.8426 8.31594 13.0973 8.52975 13.3031 8.783H12.1672C11.959 8.783 11.7668 8.88719 11.6513 9.05688L11.6508 9.05606L8.35413 13.8942V10.2851L9.75706 8.9205C10.0045 8.67981 10.01 8.28413 9.76931 8.03662C9.52863 7.78919 9.13294 7.78369 8.8855 8.02437L8.35406 8.54125V7.29925C8.35406 6.95412 8.07425 6.67425 7.72906 6.67425C7.38387 6.67425 7.10406 6.95412 7.10406 7.29925V12.1471L5.18663 10.5914C4.91856 10.3739 4.52494 10.4149 4.3075 10.683C4.09006 10.9511 4.131 11.3447 4.39906 11.5621L7.10406 13.7568V15.7285L6.13006 17.1582ZM30.75 30.75H1.25V24.1276C5.61381 24.2634 10.6531 25.2157 15.5231 26.8307C20.4271 28.457 25.6754 28.8544 30.75 27.9901V30.75Z" fill="#2C2D2F"></path>
                                            </svg>