<?xml version="1.0" encoding="utf-8"?>
<svg width="32" height="30" viewBox="0 0 32 30" fill="none" xmlns="http://www.w3.org/2000/svg">
                                                <path d="M31.0625 27.2188H30.0312V17.9062H30.9969C31.6356 17.9062 32.0877 17.28 31.8867 16.6737L28.1367 5.36125C28.0096 4.97769 27.651 4.71875 27.2469 4.71875H24.4406V1.84375C24.4406 1.326 24.0209 0.90625 23.5031 0.90625H19.7531C19.2354 0.90625 18.8156 1.326 18.8156 1.84375V4.71875H4.75313C4.349 4.71875 3.99038 4.97769 3.86325 5.36125L0.11325 16.6737C-0.0876875 17.28 0.364437 17.9062 1.00312 17.9062H1.96875V27.2188H0.9375C0.41975 27.2188 0 27.6385 0 28.1562C0 28.674 0.41975 29.0938 0.9375 29.0938H31.0625C31.5802 29.0938 32 28.674 32 28.1562C32 27.6385 31.5802 27.2188 31.0625 27.2188ZM20.6906 2.78125H22.5656V4.71875H20.6906V2.78125ZM5.43 6.59375H26.57L29.6984 16.0312H20.1731L16.6684 12.4676C16.3012 12.0942 15.6986 12.0942 15.3314 12.4677L11.8288 16.0312H2.30156L5.43 6.59375ZM3.84375 17.9062H12.2219C12.4733 17.9062 12.7142 17.8053 12.8904 17.6259L16.0002 14.4622L19.1117 17.6261C19.2879 17.8053 19.5287 17.9062 19.7801 17.9062H28.1562V27.2188H18.8094V20.6562C18.8094 20.1385 18.3896 19.7188 17.8719 19.7188H14.1281C13.6104 19.7188 13.1906 20.1385 13.1906 20.6562V27.2188H3.84375V17.9062ZM16.9344 27.2188H15.0656V21.5938H16.9344V27.2188Z" fill="#2C2D2F"></path>
                                                <path d="M21.6281 25.3438H25.3781C25.8959 25.3438 26.3156 24.924 26.3156 24.4062V20.6562C26.3156 20.1385 25.8959 19.7188 25.3781 19.7188H21.6281C21.1104 19.7188 20.6906 20.1385 20.6906 20.6562V24.4062C20.6906 24.924 21.1104 25.3438 21.6281 25.3438ZM22.5656 21.5938H24.4406V23.4688H22.5656V21.5938Z" fill="#2C2D2F"></path>
                                                <path d="M10.3781 19.7188H6.62811C6.11036 19.7188 5.69061 20.1385 5.69061 20.6562V24.4062C5.69061 24.924 6.11036 25.3438 6.62811 25.3438H10.3781C10.8959 25.3438 11.3156 24.924 11.3156 24.4062V20.6562C11.3156 20.1385 10.8959 19.7188 10.3781 19.7188ZM9.44061 23.4688H7.56561V21.5938H9.44061V23.4688Z" fill="#2C2D2F"></path>
                                            </svg>